<?xml version="1.0" standalone="no"?>
<!DOCTYPE svg PUBLIC "-//W3C//DTD SVG 20010904//EN"
 "http://www.w3.org/TR/2001/REC-SVG-20010904/DTD/svg10.dtd">
<svg version="1.0" xmlns="http://www.w3.org/2000/svg"
 width="160.000000pt" height="160.000000pt" viewBox="0 0 160.000000 160.000000"
 preserveAspectRatio="xMidYMid meet">
<metadata>
Created by potrace 1.14, written by Peter Selinger 2001-2017
</metadata>
<g transform="translate(0.000000,160.000000) scale(0.100000,-0.100000)"
fill="#000000" stroke="none">
<path d="M745 1419 l-50 -152 -45 -18 c-25 -11 -52 -23 -60 -28 -11 -6 -68 18
-194 81 -98 49 -180 87 -183 85 -2 -3 34 -82 81 -176 47 -94 86 -177 86 -185
0 -22 -40 -110 -53 -118 -7 -4 -68 -26 -137 -49 -69 -23 -136 -46 -150 -51
-22 -8 -4 -16 135 -62 l159 -52 21 -52 c11 -28 24 -54 27 -58 4 -3 -36 -91
-88 -196 l-95 -189 186 94 185 93 37 -18 c20 -10 44 -18 54 -18 26 0 33 -14
87 -180 28 -85 53 -148 56 -140 3 8 28 80 55 160 l50 145 50 20 c27 11 53 24
57 27 3 4 91 -36 195 -88 l189 -94 -94 187 c-66 132 -91 192 -85 203 5 8 17
35 28 60 l19 45 151 50 c83 27 151 52 151 55 0 3 -66 27 -148 54 -146 49 -175
62 -168 75 2 3 -6 26 -18 51 l-22 45 93 188 94 188 -185 -93 -184 -93 -62 25
-62 25 -51 153 c-29 83 -54 152 -57 152 -3 0 -28 -68 -55 -151z"/>
</g>
</svg>
